<svg width="628" height="646" viewBox="0 0 628 646" fill="none" xmlns="http://www.w3.org/2000/svg">
<path d="M618.545 0.0203582C621.381 -0.135852 622.816 0.610587 625.081 2.13253C628.773 9.04835 627.329 20.2102 625.959 27.8225C618.921 66.9677 599.308 104.089 573.61 134.257C569.259 139.365 565.005 144.568 560.303 149.366C532.36 177.885 497.184 197.737 458.97 209.151C453.865 210.676 448.674 211.74 443.519 213.058C423.654 218.133 403.73 222.02 383.293 224.08C373.194 225.098 363.039 224.959 352.935 225.72C337.257 226.901 321.661 228.47 306.013 229.921C292.181 231.206 278.523 232.229 264.819 234.672C258.316 235.831 251.857 237.667 245.457 239.292C214.159 247.241 185.089 258.898 158.444 277.362C110.721 310.429 75.6324 357.531 65.3476 415.234C58.6123 454.962 67.9054 495.728 91.209 528.684C114.063 561.009 147.61 581.189 186.645 587.857C246.084 598.011 308.442 581.64 360.921 553.75C376.489 545.333 391.503 535.938 405.87 525.625C457.928 489.006 501.325 442.695 519.559 380.485C523.882 365.741 527.034 350.686 527.137 335.289C527.205 324.997 527.336 314.586 526.457 304.325C525.687 295.339 520.705 272.185 521.906 265.616C522.263 263.666 522.737 262.76 524.321 261.67C525.707 261.544 526.565 261.874 527.658 262.749C531.977 266.212 535.613 273.551 538.3 278.369C553.925 306.394 562.182 333.929 566.497 365.485C567.584 376.576 567.342 388.195 566.94 399.32C565.926 427.414 563.246 448.434 552.941 474.999C527.215 541.327 474.404 591.509 409.504 619.971C382.591 631.774 358.53 637.393 329.607 641.363C319.02 642.816 308.239 644.756 297.563 645.329C277.378 646.416 261.072 644.687 241.332 641.829C218.341 638.502 198.203 634.521 176.369 626.083C133.177 609.392 100.642 588.009 68.8566 554.603C50.0521 534.84 33.8735 512.125 22.8593 487.102C16.6427 472.978 11.067 458.819 7.24206 443.855C1.70397 422.188 -0.0409569 402.469 0.000726225 380.19C0.061204 347.716 4.44389 317.615 16.4818 287.199C30.2357 252.446 50.6409 222.079 76.2027 194.853C123.529 144.448 186.094 109.284 252.612 90.5947C278.249 83.3915 304.601 78.7276 330.954 75.062C337.767 74.1146 344.561 72.8934 351.396 72.138C371.832 69.88 391.644 68.6557 412.119 67.3888C417.744 67.0409 423.344 66.3518 428.965 66.0155C440.225 65.3422 451.428 65.0666 462.68 63.9635C470.293 63.217 477.947 61.7999 485.517 60.6623C493.349 59.4856 500.904 58.4162 508.589 56.4495C537.84 48.9643 563.036 40.2812 587.765 22.2572C597.635 15.0637 607.295 4.90415 618.545 0.0203582Z" fill="#DFDAD0"/>
<path d="M301.274 450.441C267.857 438.631 246.686 405.852 249.784 370.714C252.883 335.576 279.463 306.96 314.438 301.116C349.411 295.271 383.935 313.673 398.409 345.874C411.124 374.162 405.661 407.266 384.518 430.024C363.376 452.784 330.629 460.815 301.274 450.441Z" fill="#DFDAD0"/>
<mask id="mask0_1136_1299" style="mask-type:alpha" maskUnits="userSpaceOnUse" x="249" y="300" width="157" height="155">
<path d="M301.274 450.441C267.857 438.631 246.686 405.852 249.784 370.714C252.883 335.576 279.463 306.96 314.438 301.116C349.411 295.271 383.935 313.673 398.409 345.874C411.124 374.162 405.661 407.266 384.518 430.024C363.376 452.784 330.629 460.815 301.274 450.441Z" fill="#3A4344"/>
</mask>
<g mask="url(#mask0_1136_1299)">
<ellipse cx="86.8265" cy="75.7475" rx="86.8265" ry="75.7475" transform="matrix(0.765509 -0.643425 0.647592 0.761987 270.613 430.234)" fill="#BE9161"/>
</g>
</svg>
