<svg width="668" height="686" viewBox="0 0 668 686" fill="none" xmlns="http://www.w3.org/2000/svg">
<g filter="url(#filter0_d_1084_5943)">
<path d="M638.546 20.0204C641.381 19.8641 642.816 20.6106 645.081 22.1325C648.773 29.0483 647.329 40.2102 645.959 47.8225C638.921 86.9677 619.308 124.089 593.61 154.257C589.259 159.365 585.005 164.568 580.303 169.366C552.36 197.885 517.184 217.737 478.97 229.151C473.866 230.676 468.674 231.74 463.519 233.058C443.655 238.133 423.73 242.02 403.293 244.08C393.194 245.098 383.039 244.959 372.935 245.72C357.257 246.901 341.661 248.47 326.013 249.921C312.181 251.206 298.523 252.229 284.819 254.672C278.316 255.831 271.857 257.667 265.457 259.292C234.159 267.241 205.089 278.898 178.444 297.362C130.721 330.429 95.6324 377.531 85.3476 435.234C78.6123 474.962 87.9054 515.728 111.209 548.684C134.064 581.009 167.61 601.189 206.645 607.857C266.084 618.011 328.442 601.64 380.921 573.75C396.489 565.333 411.503 555.938 425.87 545.625C477.928 509.006 521.325 462.695 539.559 400.485C543.882 385.741 547.034 370.686 547.137 355.289C547.206 344.997 547.336 334.586 546.457 324.325C545.687 315.339 540.706 292.185 541.906 285.616C542.263 283.666 542.738 282.76 544.321 281.67C545.708 281.544 546.565 281.874 547.658 282.749C551.977 286.212 555.613 293.551 558.3 298.369C573.925 326.394 582.182 353.929 586.497 385.485C587.584 396.576 587.342 408.195 586.94 419.32C585.926 447.414 583.247 468.434 572.941 494.999C547.215 561.327 494.404 611.509 429.505 639.971C402.591 651.774 378.53 657.393 349.607 661.363C339.021 662.816 328.239 664.756 317.563 665.329C297.378 666.416 281.072 664.687 261.332 661.829C238.341 658.502 218.203 654.521 196.369 646.083C153.177 629.392 120.642 608.009 88.8566 574.603C70.0521 554.84 53.8735 532.125 42.8593 507.102C36.6427 492.978 31.067 478.819 27.2421 463.855C21.704 442.188 19.959 422.469 20.0007 400.19C20.0612 367.716 24.4439 337.615 36.4818 307.199C50.2357 272.446 70.6409 242.079 96.2027 214.853C143.529 164.448 206.094 129.284 272.612 110.595C298.249 103.391 324.601 98.7276 350.954 95.062C357.767 94.1146 364.561 92.8934 371.396 92.138C391.832 89.88 411.644 88.6557 432.119 87.3888C437.744 87.0409 443.344 86.3518 448.965 86.0155C460.225 85.3422 471.428 85.0666 482.68 83.9635C490.293 83.217 497.947 81.7999 505.517 80.6623C513.349 79.4856 520.904 78.4162 528.589 76.4495C557.84 68.9643 583.036 60.2812 607.765 42.2572C617.635 35.0637 627.295 24.9042 638.546 20.0204Z" fill="#3A4344"/>
</g>
<path d="M321.274 470.441C287.857 458.631 266.686 425.852 269.784 390.714C272.883 355.576 299.463 326.96 334.438 321.116C369.411 315.271 403.935 333.673 418.409 365.874C431.124 394.162 425.661 427.266 404.518 450.024C383.376 472.784 350.629 480.815 321.274 470.441Z" fill="#2C3739"/>
<mask id="mask0_1084_5943" style="mask-type:alpha" maskUnits="userSpaceOnUse" x="269" y="320" width="157" height="155">
<path d="M321.274 470.441C287.857 458.631 266.686 425.852 269.784 390.714C272.883 355.576 299.463 326.96 334.438 321.116C369.411 315.271 403.935 333.673 418.409 365.874C431.124 394.162 425.661 427.266 404.518 450.024C383.376 472.784 350.629 480.815 321.274 470.441Z" fill="#3A4344"/>
</mask>
<g mask="url(#mask0_1084_5943)">
<ellipse cx="86.8265" cy="75.7475" rx="86.8265" ry="75.7475" transform="matrix(0.765509 -0.643425 0.647592 0.761987 290.613 450.234)" fill="#BE9161"/>
</g>
<defs>
<filter id="filter0_d_1084_5943" x="0" y="0" width="667.424" height="685.657" filterUnits="userSpaceOnUse" color-interpolation-filters="sRGB">
<feFlood flood-opacity="0" result="BackgroundImageFix"/>
<feColorMatrix in="SourceAlpha" type="matrix" values="0 0 0 0 0 0 0 0 0 0 0 0 0 0 0 0 0 0 127 0" result="hardAlpha"/>
<feOffset/>
<feGaussianBlur stdDeviation="10"/>
<feComposite in2="hardAlpha" operator="out"/>
<feColorMatrix type="matrix" values="0 0 0 0 1 0 0 0 0 1 0 0 0 0 1 0 0 0 0.25 0"/>
<feBlend mode="normal" in2="BackgroundImageFix" result="effect1_dropShadow_1084_5943"/>
<feBlend mode="normal" in="SourceGraphic" in2="effect1_dropShadow_1084_5943" result="shape"/>
</filter>
</defs>
</svg>
