<svg width="235" height="282" viewBox="0 0 235 282" fill="none" xmlns="http://www.w3.org/2000/svg">
<mask id="mask0_1_34" style="mask-type:luminance" maskUnits="userSpaceOnUse" x="0" y="105" width="235" height="177">
<path d="M0 281.374H234.48V105.514H0V281.374Z" fill="white"/>
</mask>
<g mask="url(#mask0_1_34)">
<path d="M29.31 278.443C14.7626 278.443 2.931 266.609 2.931 252.064V29.3077C2.931 14.7623 14.7626 2.92866 29.31 2.92866H168.782L231.549 65.6931V252.064C231.549 266.609 219.715 278.443 205.17 278.443H29.31Z" fill="#F6F6F6"/>
<path d="M169.996 -0.00234222H29.31C13.1231 -0.00234222 0 13.1209 0 29.3077V252.064C0 268.253 13.1231 281.374 29.31 281.374H205.17C221.357 281.374 234.48 268.253 234.48 252.064V64.4797L169.996 -0.00234222ZM167.568 5.85966L228.618 66.9071V252.064C228.618 264.997 218.099 275.512 205.17 275.512H29.31C16.3815 275.512 5.862 264.997 5.862 252.064V29.3077C5.862 16.379 16.3815 5.85966 29.31 5.85966H167.568Z" fill="#E0E0E0"/>
</g>
<mask id="mask1_1_34" style="mask-type:luminance" maskUnits="userSpaceOnUse" x="0" y="0" width="235" height="106">
<path d="M0 105.514H234.478V3.34163e-07H0V105.514Z" fill="white"/>
</mask>
<g mask="url(#mask1_1_34)">
<path d="M29.31 278.443C14.7626 278.443 2.931 266.609 2.931 252.064V29.3077C2.931 14.7605 14.7626 2.92866 29.31 2.92866H168.782L231.549 65.6931V252.064C231.549 266.609 219.715 278.443 205.17 278.443H29.31Z" fill="#5E68BD"/>
<path d="M169.996 -0.00234222H29.31C13.1231 -0.00234222 0 13.1209 0 29.3077V252.064C0 268.253 13.1231 281.374 29.31 281.374H205.17C221.357 281.374 234.48 268.253 234.48 252.064V64.4797L169.996 -0.00234222ZM167.568 5.85966L228.618 66.9071V252.064C228.618 264.997 218.099 275.512 205.17 275.512H29.31C16.3815 275.512 5.862 264.997 5.862 252.064V29.3077C5.862 16.379 16.3815 5.85966 29.31 5.85966H167.568Z" fill="#4D5599"/>
</g>
<mask id="mask2_1_34" style="mask-type:luminance" maskUnits="userSpaceOnUse" x="0" y="0" width="235" height="106">
<path d="M0 105.514H234.478V3.34163e-07H0V105.514Z" fill="white"/>
</mask>
<g mask="url(#mask2_1_34)">
<mask id="mask3_1_34" style="mask-type:luminance" maskUnits="userSpaceOnUse" x="0" y="-1" width="235" height="283">
<path d="M234.48 252.064C234.48 268.253 221.357 281.374 205.17 281.374H29.31C13.1231 281.374 0 268.253 0 252.064V29.3077C0 13.1209 13.1231 -0.00234222 29.31 -0.00234222H169.996L234.48 64.4797V252.064Z" fill="white"/>
</mask>
<g mask="url(#mask3_1_34)">
<path d="M178.411 55.7025L235.151 112.443V55.7025H178.411Z" fill="#4D5599"/>
<path d="M234.48 64.4797H199.308C183.121 64.4797 169.998 51.3564 169.998 35.1697V-0.00233984H234.48V64.4797Z" fill="#AEB3DE"/>
</g>
</g>
<path d="M30.4183 36.5185H53.1631V43.7041H45.41V70.3417H38.1188V43.7041H30.4183V36.5185Z" fill="white"/>
<path d="M56.6416 36.5185H64.3906L71.1823 46.8614L78.212 36.5185H85.7523L75.0471 52.5956L86.808 70.3417H79.2765L71.235 58.3199L63.2269 70.3417H55.5331L67.42 52.6185L56.6416 36.5185Z" fill="white"/>
<path d="M89.178 36.5185H111.926V43.7041H104.17V70.3417H96.8813V43.7041H89.178V36.5185Z" fill="white"/>
<path d="M190.515 158.272H46.896C42.0393 158.272 38.103 154.333 38.103 149.479C38.103 144.622 42.0393 140.686 46.896 140.686H190.515C195.372 140.686 199.308 144.622 199.308 149.479C199.308 154.333 195.372 158.272 190.515 158.272Z" fill="#D8D8D8"/>
<path d="M190.515 193.444H46.896C42.0393 193.444 38.103 189.505 38.103 184.651C38.103 179.796 42.0393 175.858 46.896 175.858H190.515C195.372 175.858 199.308 179.796 199.308 184.651C199.308 189.505 195.372 193.444 190.515 193.444Z" fill="#D8D8D8"/>
<path d="M190.515 228.616H46.896C42.0393 228.616 38.103 224.677 38.103 219.823C38.103 214.968 42.0393 211.03 46.896 211.03H190.515C195.372 211.03 199.308 214.968 199.308 219.823C199.308 224.677 195.372 228.616 190.515 228.616Z" fill="#D8D8D8"/>
<path d="M169.998 240.34H161.205V123.1H169.998V240.34Z" fill="#EBCFCF"/>
</svg>
