<svg width="235" height="282" viewBox="0 0 235 282" fill="none" xmlns="http://www.w3.org/2000/svg">
<mask id="mask0_1_37" style="mask-type:luminance" maskUnits="userSpaceOnUse" x="0" y="105" width="235" height="177">
<path d="M234.48 281.374H0V105.514H234.48V281.374Z" fill="white"/>
</mask>
<g mask="url(#mask0_1_37)">
<path d="M29.31 278.443C14.7626 278.443 2.931 266.609 2.931 252.064V29.3077C2.931 14.7605 14.7626 2.92866 29.31 2.92866H168.785L231.549 65.6931V252.064C231.549 266.609 219.715 278.443 205.17 278.443H29.31Z" fill="#F6F6F6"/>
<path d="M169.998 -0.00234222H29.31C13.1208 -0.00234222 0 13.1209 0 29.3077V252.064C0 268.253 13.1208 281.374 29.31 281.374H205.17C221.359 281.374 234.48 268.253 234.48 252.064V64.4797L169.998 -0.00234222ZM167.571 5.85966L228.618 66.9071V252.064C228.618 264.997 218.103 275.512 205.17 275.512H29.31C16.3792 275.512 5.862 264.997 5.862 252.064V29.3077C5.862 16.379 16.3792 5.85966 29.31 5.85966H167.571Z" fill="#E0E0E0"/>
</g>
<mask id="mask1_1_37" style="mask-type:luminance" maskUnits="userSpaceOnUse" x="0" y="0" width="235" height="106">
<path d="M234.48 105.514H0V3.34163e-07H234.48V105.514Z" fill="white"/>
</mask>
<g mask="url(#mask1_1_37)">
<path d="M29.31 278.443C14.7626 278.443 2.931 266.609 2.931 252.064V29.3077C2.931 14.7605 14.7626 2.92866 29.31 2.92866H168.785L231.549 65.6931V252.064C231.549 266.609 219.715 278.443 205.17 278.443H29.31Z" fill="#EFBE2C"/>
<path d="M169.998 -0.00234222H29.31C13.1208 -0.00234222 0 13.1209 0 29.3077V252.064C0 268.253 13.1208 281.374 29.31 281.374H205.17C221.359 281.374 234.48 268.253 234.48 252.064V64.4797L169.998 -0.00234222ZM167.571 5.85966L228.618 66.9071V252.064C228.618 264.997 218.103 275.512 205.17 275.512H29.31C16.3792 275.512 5.862 264.997 5.862 252.064V29.3077C5.862 16.379 16.3792 5.85966 29.31 5.85966H167.571Z" fill="#E0AD1F"/>
</g>
<mask id="mask2_1_37" style="mask-type:luminance" maskUnits="userSpaceOnUse" x="0" y="0" width="235" height="106">
<path d="M234.48 105.514H0V3.34163e-07H234.48V105.514Z" fill="white"/>
</mask>
<g mask="url(#mask2_1_37)">
<mask id="mask3_1_37" style="mask-type:luminance" maskUnits="userSpaceOnUse" x="0" y="-1" width="235" height="283">
<path d="M234.48 252.064C234.48 268.253 221.359 281.374 205.17 281.374H29.31C13.1208 281.374 0 268.253 0 252.064V29.3077C0 13.1209 13.1208 -0.00234222 29.31 -0.00234222H169.998L234.48 64.4797V252.064Z" fill="white"/>
</mask>
<g mask="url(#mask3_1_37)">
<path d="M178.413 55.7025L235.151 112.443V55.7025H178.413Z" fill="#E0AD1F"/>
<path d="M234.48 64.4797H199.308C183.119 64.4797 169.998 51.3564 169.998 35.1697V-0.00233984H234.48V64.4797Z" fill="#F5D576"/>
</g>
</g>
<path d="M33.1753 36.5185H57.6997L42.4421 63.3348H57.1545V70.3417H31.1648L46.5138 43.4726H33.1753V36.5185Z" fill="white"/>
<path d="M63.1308 36.5185H70.4243V70.3417H63.1308V36.5185Z" fill="white"/>
<path d="M84.4908 42.598V51.2532H87.3233C88.5438 51.2532 89.5831 50.8159 90.4559 49.939C91.3188 49.0644 91.7538 48.025 91.7538 46.8227C91.7538 45.4487 91.262 44.3841 90.2883 43.6285C89.3041 42.8729 87.9183 42.4948 86.1099 42.4948L84.4908 42.598ZM77.3509 36.5185H88.9195C92.0287 36.5185 94.5365 37.4254 96.4416 39.2344C98.3485 41.0475 99.2994 43.4292 99.2994 46.3854C99.2994 48.3246 98.8298 50.1682 97.8977 51.9086C96.9633 53.6531 95.5483 54.9539 93.6589 55.8127C91.7725 56.6715 90.1582 57.1176 88.8187 57.1522L84.5939 57.2553V70.3417H77.3509V36.5185Z" fill="white"/>
<path d="M169.998 281.374H134.826V257.926H169.998V281.374Z" fill="#E0E0E0"/>
<path d="M152.412 257.926H134.826V240.34H152.412V257.926Z" fill="#E0E0E0"/>
<path d="M169.998 240.34H152.412V222.754H169.998V240.34Z" fill="#E0E0E0"/>
<path d="M152.412 222.754H134.826V205.168H152.412V222.754Z" fill="#E0E0E0"/>
<path d="M169.998 205.168H152.412V187.582H169.998V205.168Z" fill="#E0E0E0"/>
<path d="M166.476 105.514H138.341L126.759 140.259C124.014 148.499 125.392 157.562 130.468 164.614C135.547 171.668 143.71 175.851 152.4 175.858H152.412C161.102 175.858 169.265 171.679 174.342 164.633C179.428 157.578 180.806 148.517 178.058 140.274L166.476 105.514Z" fill="#E0E0E0"/>
<path d="M140.688 146.548C140.688 140.072 145.936 134.824 152.412 134.824C158.888 134.824 164.136 140.072 164.136 146.548C164.136 153.023 158.888 158.272 152.412 158.272C145.936 158.272 140.688 153.023 140.688 146.548Z" fill="#F6F6F6"/>
</svg>
