<svg width="235" height="206" viewBox="0 0 235 206" fill="none" xmlns="http://www.w3.org/2000/svg">
<path d="M219.825 0H73.275C65.1813 0 58.62 6.56127 58.62 14.655V190.515C58.62 198.609 65.1813 205.17 73.275 205.17H219.825C227.919 205.17 234.48 198.609 234.48 190.515V14.655C234.48 6.56127 227.919 0 219.825 0Z" fill="#2FB776"/>
<path d="M58.62 153.878H234.48V190.515C234.48 198.609 227.919 205.17 219.825 205.17H73.275C65.1813 205.17 58.62 198.609 58.62 190.515V153.878Z" fill="url(#paint0_linear_1_13)"/>
<path d="M146.55 102.585H234.48V153.877H146.55V102.585Z" fill="#229C5B"/>
<path d="M146.55 51.2925H234.48V102.585H146.55V51.2925Z" fill="#27AE68"/>
<path d="M58.62 14.655C58.62 6.56126 65.1813 0 73.275 0H146.55V51.2925H58.62V14.655Z" fill="#1D854F"/>
<path d="M58.62 51.2925H146.55V102.585H58.62V51.2925Z" fill="#197B43"/>
<path d="M58.62 102.585H146.55V153.877H58.62V102.585Z" fill="#1B5B38"/>
<path d="M58.62 73.275C58.62 61.1341 68.4619 51.2925 80.6025 51.2925H124.567C136.708 51.2925 146.55 61.1341 146.55 73.275V161.205C146.55 173.346 136.708 183.188 124.567 183.188H58.62V73.275Z" fill="black" fill-opacity="0.3"/>
<path d="M117.24 36.6375H14.655C6.56127 36.6375 0 43.1988 0 51.2925V153.878C0 161.971 6.56127 168.533 14.655 168.533H117.24C125.334 168.533 131.895 161.971 131.895 153.878V51.2925C131.895 43.1988 125.334 36.6375 117.24 36.6375Z" fill="url(#paint1_linear_1_13)"/>
<path d="M95.2575 139.223L74.6093 101.852L94.3511 65.9475H78.2357L66.0483 88.8723L54.0624 65.9475H37.4433L57.2854 101.852L36.6375 139.223H52.7529L65.7461 114.937L78.6387 139.223H95.2575Z" fill="white"/>
<defs>
<linearGradient id="paint0_linear_1_13" x1="58.62" y1="179.524" x2="234.48" y2="179.524" gradientUnits="userSpaceOnUse">
<stop stop-color="#163C27"/>
<stop offset="1" stop-color="#2A6043"/>
</linearGradient>
<linearGradient id="paint1_linear_1_13" x1="0" y1="102.585" x2="131.895" y2="102.585" gradientUnits="userSpaceOnUse">
<stop stop-color="#185A30"/>
<stop offset="1" stop-color="#176F3D"/>
</linearGradient>
</defs>
</svg>
