<svg width="235" height="269" viewBox="0 0 235 269" fill="none" xmlns="http://www.w3.org/2000/svg">
<path fill-rule="evenodd" clip-rule="evenodd" d="M21.2691 0.0251522C9.51954 0.0251522 0 9.55307 0 21.2943V246.984C0 258.734 9.51954 268.253 21.2691 268.253H213.144C224.885 268.253 234.413 258.734 234.413 246.984V85.1603L155.176 0.0251522H21.2691Z" fill="#00A1EE"/>
<path fill-rule="evenodd" clip-rule="evenodd" d="M234.48 85.3112V89.503H180.829C180.829 89.503 154.371 84.2213 155.138 61.3887C155.138 61.3887 156.01 85.3112 180.305 85.3112H234.48Z" fill="#0089E9"/>
<path opacity="0.5" fill-rule="evenodd" clip-rule="evenodd" d="M155.243 0V61.0366C155.243 67.9782 159.87 85.3112 180.829 85.3112H234.48L155.243 0Z" fill="white"/>
<path d="M65.2745 204.664L76.0683 221.041C76.3701 221.569 76.521 222.097 76.521 222.626C76.521 224.135 75.2383 225.644 73.4275 225.644C72.4466 225.644 71.5412 225.191 70.9376 224.286L58.6347 205.192H48.5953V222.55C48.5953 224.286 47.2372 225.644 45.4264 225.644C43.691 225.644 42.3328 224.286 42.3328 222.55V179.379C42.3328 176.889 44.37 174.848 46.8641 174.848H62.5624C71.7717 174.848 78.336 180.737 78.336 190.018C78.336 199.076 72.1448 204.06 65.2745 204.664ZM48.5953 180.435V199.68H61.8037C67.7644 199.68 71.843 195.681 71.843 190.018C71.843 184.359 67.7686 180.431 61.8037 180.431L48.5953 180.435ZM121.796 180.435H108.06V222.55C108.06 224.286 106.702 225.644 104.891 225.644C103.151 225.644 101.797 224.286 101.797 222.55V180.435H88.1364C86.6274 180.435 85.4202 179.228 85.4202 177.568C85.4202 176.059 86.6274 174.852 88.1364 174.852H121.801C123.31 174.852 124.517 176.059 124.517 177.723C124.513 179.228 123.306 180.435 121.796 180.435ZM164.951 180.435H140.5V196.662H164.427C165.936 196.662 167.143 197.869 167.143 199.533C167.143 201.042 165.936 202.249 164.427 202.249H140.5V222.55C140.5 224.286 139.142 225.644 137.331 225.644C135.596 225.644 134.238 224.286 134.238 222.55V179.379C134.238 176.889 136.275 174.848 138.769 174.848H164.959C166.468 174.848 167.676 176.055 167.676 177.719C167.667 179.228 166.46 180.435 164.951 180.435Z" fill="white"/>
</svg>
