<svg width="245" height="306" viewBox="0 0 245 306" fill="none" xmlns="http://www.w3.org/2000/svg">
<path d="M0.5 30.555C0.5 22.4513 3.71918 14.6795 9.44935 8.94935C15.1795 3.21918 22.9513 0 31.055 0H153.275C157.327 0.000865278 161.212 1.61102 164.076 4.47631L240.464 80.8638C243.329 83.7282 244.939 87.6135 244.94 91.665V274.995C244.94 283.099 241.721 290.87 235.991 296.601C230.26 302.331 222.489 305.55 214.385 305.55H31.055C22.9513 305.55 15.1795 302.331 9.44935 296.601C3.71918 290.87 0.5 283.099 0.5 274.995V30.555ZM208.06 91.665L153.275 36.8799V91.665H208.06ZM122.72 30.555H31.055V274.995H214.385V122.22H137.998C133.946 122.22 130.06 120.61 127.195 117.745C124.33 114.88 122.72 110.994 122.72 106.942V30.555ZM61.61 168.052C61.61 164.001 63.2196 160.115 66.0847 157.25C68.9498 154.385 72.8357 152.775 76.8875 152.775H168.553C172.604 152.775 176.49 154.385 179.355 157.25C182.22 160.115 183.83 164.001 183.83 168.052C183.83 172.104 182.22 175.99 179.355 178.855C176.49 181.72 172.604 183.33 168.553 183.33H76.8875C72.8357 183.33 68.9498 181.72 66.0847 178.855C63.2196 175.99 61.61 172.104 61.61 168.052ZM61.61 229.162C61.61 225.111 63.2196 221.225 66.0847 218.36C68.9498 215.495 72.8357 213.885 76.8875 213.885H168.553C172.604 213.885 176.49 215.495 179.355 218.36C182.22 221.225 183.83 225.111 183.83 229.162C183.83 233.214 182.22 237.1 179.355 239.965C176.49 242.83 172.604 244.44 168.553 244.44H76.8875C72.8357 244.44 68.9498 242.83 66.0847 239.965C63.2196 237.1 61.61 233.214 61.61 229.162Z" fill="#3A4344"/>
</svg>
