<svg width="235" height="218" viewBox="0 0 235 218" fill="none" xmlns="http://www.w3.org/2000/svg">
<path d="M141.777 119.752L125.422 0H124.199C95.6467 0.0485126 68.2747 11.3986 48.0663 31.5694C27.8579 51.7401 16.4568 79.0909 16.355 107.643V108.866L141.777 119.752Z" fill="#ED6C47"/>
<path d="M126.644 0H125.422V108.866L179.947 130.639L234.48 108.866V107.643C234.378 79.0923 222.978 51.7428 202.772 31.5723C182.565 11.4018 155.195 0.0507234 126.644 0Z" fill="#FF8F6B"/>
<path d="M234.48 108.866V110.063C234.374 138.619 222.97 165.973 202.759 186.147C182.549 206.321 155.175 217.676 126.619 217.731H124.216C95.6609 217.672 68.2898 206.315 48.0804 186.142C27.871 165.969 16.4655 138.618 16.355 110.063V108.866H234.48Z" fill="#D35230"/>
<path opacity="0.1" d="M130.873 53.5033V169.663C130.858 171.639 130.261 173.567 129.155 175.206C128.05 176.844 126.486 178.12 124.66 178.875C123.467 179.377 122.186 179.636 120.891 179.637H42.0975C40.5734 177.895 39.0995 176.044 37.7345 174.194C23.844 155.703 16.3404 133.198 16.355 110.072V107.677C16.3287 86.8157 22.4354 66.4073 33.9159 48.9896C35.1134 47.1389 36.3695 45.2881 37.7345 43.5463H120.891C123.529 43.5638 126.054 44.6176 127.921 46.4804C129.789 48.3433 130.849 50.8657 130.873 53.5033Z" fill="black"/>
<path opacity="0.2" d="M125.422 58.955V175.115C125.421 176.404 125.162 177.679 124.66 178.866C123.904 180.692 122.627 182.254 120.989 183.357C119.351 184.461 117.423 185.057 115.448 185.072H47.0635C45.3384 183.319 43.6831 181.504 42.0975 179.628C40.5734 177.887 39.0995 176.036 37.7345 174.185C23.844 155.695 16.3404 133.19 16.355 110.063V107.668C16.3303 86.8102 22.437 66.4049 33.9159 48.9896H115.44C118.079 49.0071 120.605 50.0621 122.473 51.9267C124.34 53.7913 125.4 56.3159 125.422 58.955Z" fill="black"/>
<path opacity="0.2" d="M125.422 58.955V164.228C125.398 166.866 124.337 169.388 122.47 171.251C120.602 173.114 118.077 174.168 115.44 174.185H37.7345C23.844 155.695 16.3404 133.19 16.355 110.063V107.668C16.3303 86.8102 22.437 66.4049 33.9159 48.9896H115.44C118.079 49.0071 120.605 50.0621 122.473 51.9267C124.34 53.7913 125.4 56.3159 125.422 58.955Z" fill="black"/>
<path opacity="0.2" d="M119.97 58.955V164.228C119.946 166.866 118.886 169.388 117.018 171.251C115.151 173.114 112.626 174.168 109.988 174.185H37.7345C23.844 155.695 16.3404 133.19 16.355 110.063V107.668C16.3303 86.8102 22.437 66.4049 33.9159 48.9896H109.988C112.627 49.0071 115.153 50.0621 117.021 51.9267C118.889 53.7913 119.948 56.3159 119.97 58.955Z" fill="black"/>
<path d="M9.9989 48.9896H109.971C112.619 48.9873 115.16 50.0366 117.035 51.9068C118.91 53.777 119.966 56.3151 119.97 58.9633V158.768C119.966 161.416 118.91 163.954 117.035 165.825C115.16 167.695 112.619 168.744 109.971 168.742H9.9989C8.68732 168.744 7.38816 168.488 6.17569 167.988C4.96321 167.487 3.86118 166.753 2.93258 165.827C2.00399 164.901 1.26704 163.801 0.76385 162.589C0.26066 161.378 0.00109847 160.08 0 158.768V58.9633C0.00109847 57.6518 0.26066 56.3533 0.76385 55.142C1.26704 53.9308 2.00399 52.8306 2.93258 51.9044C3.86118 50.9781 4.96321 50.2439 6.17569 49.7438C7.38816 49.2437 8.68732 48.9874 9.9989 48.9896Z" fill="url(#paint0_linear_1_12)"/>
<path d="M61.0737 75.6031C67.5816 75.1653 74.0335 77.0528 79.2794 80.9291C81.4363 82.8492 83.1275 85.2355 84.2245 87.9068C85.3214 90.5782 85.7954 93.4643 85.6103 96.3462C85.6835 100.406 84.6002 104.402 82.4867 107.869C80.3485 111.281 77.2684 114 73.6183 115.699C69.4479 117.633 64.891 118.59 60.2949 118.496H47.6246V141.944H34.6779V75.6031H61.0737ZM47.6162 108.363H58.7624C62.2964 108.618 65.8017 107.573 68.6189 105.424C69.7709 104.325 70.6679 102.987 71.2466 101.504C71.8254 100.021 72.0718 98.4289 71.9686 96.8402C71.9686 89.5323 67.7117 85.8755 59.1978 85.8699H47.6162V108.363Z" fill="white"/>
<defs>
<linearGradient id="paint0_linear_1_12" x1="20.8855" y1="41.1512" x2="99.0846" y2="176.58" gradientUnits="userSpaceOnUse">
<stop stop-color="#CA4C28"/>
<stop offset="0.5" stop-color="#C5401E"/>
<stop offset="1" stop-color="#B62F14"/>
</linearGradient>
</defs>
</svg>
