<svg width="245" height="235" viewBox="0 0 245 235" fill="none" xmlns="http://www.w3.org/2000/svg">
<path d="M148.451 27.3346H244.94V207.447H148.451V194.582H180.614V168.851H148.451V162.419H180.614V136.688H148.451V130.256H180.614V104.526H148.451V98.093H180.614V72.3627H148.451V65.9301H180.614V40.1998H148.451V27.3346ZM232.072 194.585L232.073 168.853H187.044V194.585H232.072ZM232.072 136.691H187.044V162.421H232.073L232.072 136.691ZM232.072 104.528H187.044V130.258H232.072V104.528ZM232.072 72.3653H187.044V98.0956H232.072V72.3653ZM232.072 40.203H187.044V65.9327H232.072L232.072 40.203ZM0.5 25.7284L142.015 0V234.789L0.5 209.057V25.7284ZM101.11 159.297L79.8588 113.585L100.543 68.9528L83.7389 69.6642L72.6974 96.1394L71.3645 100.604L70.5347 103.813L70.3572 103.815C67.77 92.4632 63.2074 81.6487 59.243 70.7011L40.9005 71.4776L60.0348 113.941L39.0781 156.386L57.0469 157.229L68.2344 129.456L69.7023 123.371L69.894 123.373C72.7507 135.554 78.488 146.88 83.2314 158.458L101.11 159.297Z" fill="#3A4344"/>
</svg>
