<svg width="24" height="24" viewBox="0 0 24 24" fill="none" xmlns="http://www.w3.org/2000/svg">
<path d="M16.4 7.59995C20.8 7.59995 23 5.39997 23 1C18.6 1 16.4 3.19998 16.4 7.59995ZM16.4 7.59995C13.6501 12.5499 12.9901 15.4979 12.0001 22.9998C11.8733 18.7542 10.8236 14.5871 8.92408 10.7879C7.02453 6.98882 4.3206 3.64883 1.00016 1M17.951 2.74899C15.6684 1.28057 12.9234 0.707936 10.244 1.14121C7.56461 1.57448 5.14001 2.98306 3.43647 5.09606C1.73293 7.20907 0.870739 9.8773 1.01571 12.5876C1.16069 15.2979 2.30259 17.859 4.22181 19.7782C6.14104 21.6974 8.70207 22.8393 11.4124 22.9843C14.1227 23.1293 16.7909 22.2671 18.9039 20.5635C21.0169 18.86 22.4255 16.4354 22.8588 13.756C23.2921 11.0766 22.7194 8.33164 21.251 6.04896" stroke="#5D6A6B" stroke-width="2" stroke-linecap="round" stroke-linejoin="round"/>
</svg>
