<svg width="68" height="25" viewBox="0 0 68 25" fill="none" xmlns="http://www.w3.org/2000/svg">
<path d="M10.4298 24.2C9.17643 24.2 8.24977 23.9067 7.64977 23.32C7.0631 22.72 6.76977 21.8267 6.76977 20.64V11.48L9.30977 10.54V20.7C9.30977 21.1933 9.4431 21.56 9.70977 21.8C9.97643 22.04 10.3964 22.16 10.9698 22.16C11.1964 22.16 11.3964 22.1467 11.5698 22.12C11.7564 22.08 11.9298 22.0333 12.0898 21.98V23.94C11.9298 24.02 11.7031 24.08 11.4098 24.12C11.1164 24.1733 10.7898 24.2 10.4298 24.2ZM4.80977 15.78V13.8H12.0898V15.78H4.80977ZM20.198 24C20.1314 23.7333 20.078 23.44 20.038 23.12C20.0114 22.8 19.998 22.4133 19.998 21.96H19.918V17.12C19.918 16.5867 19.7647 16.1867 19.458 15.92C19.1647 15.64 18.7114 15.5 18.098 15.5C17.498 15.5 17.018 15.6133 16.658 15.84C16.3114 16.0533 16.098 16.3667 16.018 16.78H13.598C13.7047 15.8333 14.158 15.0667 14.958 14.48C15.758 13.8933 16.8314 13.6 18.178 13.6C19.578 13.6 20.638 13.92 21.358 14.56C22.078 15.1867 22.438 16.1133 22.438 17.34V21.96C22.438 22.28 22.458 22.6067 22.498 22.94C22.5514 23.2733 22.6247 23.6267 22.718 24H20.198ZM16.658 24.2C15.6314 24.2 14.8114 23.9467 14.198 23.44C13.598 22.92 13.298 22.2267 13.298 21.36C13.298 20.4267 13.638 19.6867 14.318 19.14C14.998 18.5933 15.958 18.2267 17.198 18.04L20.378 17.56V19.16L17.618 19.58C17.018 19.6733 16.5647 19.84 16.258 20.08C15.9647 20.32 15.818 20.6533 15.818 21.08C15.818 21.4667 15.958 21.7667 16.238 21.98C16.518 22.18 16.9047 22.28 17.398 22.28C18.118 22.28 18.718 22.1 19.198 21.74C19.678 21.38 19.918 20.94 19.918 20.42L20.198 21.96C19.9314 22.6933 19.4914 23.2533 18.878 23.64C18.278 24.0133 17.538 24.2 16.658 24.2ZM19.118 12.14V9.34H21.858V12.14H19.118ZM14.518 12.14V9.34H17.258V12.14H14.518ZM28.6951 24.2C27.2817 24.2 26.1551 23.9067 25.3151 23.32C24.4751 22.72 24.0151 21.8933 23.9351 20.84H26.2351C26.3017 21.36 26.5484 21.7533 26.9751 22.02C27.4017 22.2867 27.9751 22.42 28.6951 22.42C29.3484 22.42 29.8351 22.32 30.1551 22.12C30.4884 21.9067 30.6551 21.6067 30.6551 21.22C30.6551 20.94 30.5617 20.7133 30.3751 20.54C30.1884 20.3533 29.8351 20.2 29.3151 20.08L27.6751 19.7C26.5551 19.46 25.7217 19.0867 25.1751 18.58C24.6417 18.06 24.3751 17.4133 24.3751 16.64C24.3751 15.6933 24.7351 14.9533 25.4551 14.42C26.1884 13.8733 27.1951 13.6 28.4751 13.6C29.7417 13.6 30.7551 13.8733 31.5151 14.42C32.2884 14.9533 32.7151 15.6933 32.7951 16.64H30.4951C30.4284 16.2267 30.2151 15.9133 29.8551 15.7C29.5084 15.4867 29.0284 15.38 28.4151 15.38C27.8417 15.38 27.4084 15.4733 27.1151 15.66C26.8217 15.8333 26.6751 16.0933 26.6751 16.44C26.6751 16.7067 26.7884 16.9333 27.0151 17.12C27.2417 17.2933 27.6217 17.4467 28.1551 17.58L29.9151 17.98C30.9151 18.2067 31.6684 18.6 32.1751 19.16C32.6951 19.72 32.9551 20.38 32.9551 21.14C32.9551 22.1133 32.5817 22.8667 31.8351 23.4C31.0884 23.9333 30.0417 24.2 28.6951 24.2ZM34.6779 24V9.46H37.1979V24H34.6779ZM41.2579 24L36.6179 18.7L41.1179 13.8H44.1579L38.9579 19.16L39.0979 18.22L44.3579 24H41.2579Z" fill="#43455F"/>
<rect x="39" y="1" width="29" height="11" rx="5.5" fill="#363A5A"/>
<path d="M43.8709 10V8.992H45.9814C46.3664 8.992 46.6639 8.887 46.8739 8.677C47.0839 8.46 47.1889 8.166 47.1889 7.795C47.1889 7.41 47.0769 7.1055 46.8529 6.8815C46.6289 6.6575 46.3174 6.5455 45.9184 6.5455H43.8709V5.5375H45.8239C46.2019 5.5375 46.4924 5.4465 46.6954 5.2645C46.8984 5.0825 46.9999 4.82 46.9999 4.477C46.9999 4.141 46.9019 3.8855 46.7059 3.7105C46.5169 3.5355 46.2369 3.448 45.8659 3.448H43.8709V2.44H46.1179C46.7969 2.44 47.3394 2.6115 47.7454 2.9545C48.1584 3.2905 48.3649 3.749 48.3649 4.33C48.3649 4.694 48.2774 5.0125 48.1024 5.2855C47.9344 5.5515 47.7069 5.758 47.4199 5.905C47.1329 6.052 46.8074 6.1255 46.4434 6.1255L46.4959 5.905C46.8809 5.905 47.2309 5.9925 47.5459 6.1675C47.8609 6.3355 48.1094 6.5735 48.2914 6.8815C48.4804 7.1895 48.5749 7.5465 48.5749 7.9525C48.5749 8.3655 48.4769 8.726 48.2809 9.034C48.0919 9.342 47.8224 9.58 47.4724 9.748C47.1294 9.916 46.7234 10 46.2544 10H43.8709ZM42.7999 10V2.44H44.1649V10H42.7999ZM52.0245 10.105C51.4575 10.105 50.9605 9.986 50.5335 9.748C50.1135 9.51 49.7845 9.181 49.5465 8.761C49.3155 8.341 49.2 7.858 49.2 7.312C49.2 6.766 49.3155 6.2865 49.5465 5.8735C49.7845 5.4535 50.1135 5.128 50.5335 4.897C50.9535 4.659 51.4435 4.54 52.0035 4.54C52.5355 4.54 52.9975 4.652 53.3895 4.876C53.7815 5.093 54.086 5.401 54.303 5.8C54.52 6.199 54.6285 6.6645 54.6285 7.1965C54.6285 7.2945 54.625 7.3855 54.618 7.4695C54.611 7.5535 54.6005 7.6375 54.5865 7.7215H50.019V6.7975H53.568L53.295 7.0495C53.295 6.5455 53.1795 6.1675 52.9485 5.9155C52.7175 5.6635 52.3955 5.5375 51.9825 5.5375C51.5345 5.5375 51.1775 5.6915 50.9115 5.9995C50.6525 6.3075 50.523 6.752 50.523 7.333C50.523 7.907 50.6525 8.348 50.9115 8.656C51.1775 8.957 51.552 9.1075 52.035 9.1075C52.315 9.1075 52.56 9.055 52.77 8.95C52.98 8.845 53.134 8.684 53.232 8.467H54.4815C54.3065 8.971 54.009 9.37 53.589 9.664C53.176 9.958 52.6545 10.105 52.0245 10.105ZM57.9102 10.105C57.2522 10.105 56.7657 9.951 56.4507 9.643C56.1427 9.328 55.9887 8.859 55.9887 8.236V3.427L57.3222 2.9335V8.2675C57.3222 8.5265 57.3922 8.719 57.5322 8.845C57.6722 8.971 57.8927 9.034 58.1937 9.034C58.3127 9.034 58.4177 9.027 58.5087 9.013C58.6067 8.992 58.6977 8.9675 58.7817 8.9395V9.9685C58.6977 10.0105 58.5787 10.042 58.4247 10.063C58.2707 10.091 58.0992 10.105 57.9102 10.105ZM54.9597 5.6845V4.645H58.7817V5.6845H54.9597ZM63.0386 10C63.0036 9.86 62.9756 9.706 62.9546 9.538C62.9406 9.37 62.9336 9.167 62.9336 8.929H62.8916V6.388C62.8916 6.108 62.8111 5.898 62.6501 5.758C62.4961 5.611 62.2581 5.5375 61.9361 5.5375C61.6211 5.5375 61.3691 5.597 61.1801 5.716C60.9981 5.828 60.8861 5.9925 60.8441 6.2095H59.5736C59.6296 5.7125 59.8676 5.31 60.2876 5.002C60.7076 4.694 61.2711 4.54 61.9781 4.54C62.7131 4.54 63.2696 4.708 63.6476 5.044C64.0256 5.373 64.2146 5.8595 64.2146 6.5035V8.929C64.2146 9.097 64.2251 9.2685 64.2461 9.4435C64.2741 9.6185 64.3126 9.804 64.3616 10H63.0386ZM61.1801 10.105C60.6411 10.105 60.2106 9.972 59.8886 9.706C59.5736 9.433 59.4161 9.069 59.4161 8.614C59.4161 8.124 59.5946 7.7355 59.9516 7.4485C60.3086 7.1615 60.8126 6.969 61.4636 6.871L63.1331 6.619V7.459L61.6841 7.6795C61.3691 7.7285 61.1311 7.816 60.9701 7.942C60.8161 8.068 60.7391 8.243 60.7391 8.467C60.7391 8.67 60.8126 8.8275 60.9596 8.9395C61.1066 9.0445 61.3096 9.097 61.5686 9.097C61.9466 9.097 62.2616 9.0025 62.5136 8.8135C62.7656 8.6245 62.8916 8.3935 62.8916 8.1205L63.0386 8.929C62.8986 9.314 62.6676 9.608 62.3456 9.811C62.0306 10.007 61.6421 10.105 61.1801 10.105Z" fill="#B6B9D0"/>
</svg>
