<svg width="42" height="16" viewBox="0 0 42 16" fill="none" xmlns="http://www.w3.org/2000/svg">
<path d="M5.03992 15.2101C4.03192 15.2101 3.28292 14.9371 2.79292 14.3911C2.30292 13.8451 2.05792 13.0121 2.05792 11.8921V5.7391H0.419922L0.440922 4.1431H1.46992C1.81992 4.1431 2.07192 4.0801 2.22592 3.9541C2.39392 3.8281 2.49192 3.6181 2.51992 3.32409L2.72992 1.6861H3.90592V4.1431H7.03492V5.7601H3.90592V11.8501C3.90592 12.4101 4.03192 12.8161 4.28392 13.0681C4.54992 13.3061 4.92792 13.4251 5.41792 13.4251C5.68392 13.4251 5.95692 13.3901 6.23692 13.3201C6.53092 13.2501 6.81792 13.1101 7.09792 12.9001V14.8111C6.69192 14.9651 6.31392 15.0701 5.96392 15.1261C5.62792 15.1821 5.31992 15.2101 5.03992 15.2101Z" fill="#F9F7EF"/>
<path d="M11.9509 15.2731C11.3629 15.2731 10.8309 15.1611 10.3549 14.9371C9.87889 14.6991 9.50089 14.3561 9.22089 13.9081C8.94089 13.4461 8.80089 12.8651 8.80089 12.1651C8.80089 11.6471 8.89189 11.1921 9.07389 10.8001C9.26989 10.4081 9.56389 10.0721 9.95589 9.7921C10.3619 9.5121 10.8799 9.2811 11.5099 9.0991C12.1399 8.9171 12.9099 8.7631 13.8199 8.6371C14.3379 8.5671 14.7579 8.4971 15.0799 8.4271C15.4159 8.3571 15.6609 8.2451 15.8149 8.09109C15.9689 7.9231 16.0459 7.6781 16.0459 7.3561C16.0459 6.8241 15.8639 6.3761 15.4999 6.0121C15.1359 5.6481 14.5619 5.4661 13.7779 5.4661C13.3719 5.4661 12.9589 5.5361 12.5389 5.6761C12.1189 5.8161 11.7479 6.0541 11.4259 6.3901C11.1179 6.7121 10.9219 7.1671 10.8379 7.7551L9.07389 7.1671C9.18589 6.6631 9.36789 6.2081 9.61989 5.8021C9.88589 5.3961 10.2219 5.0531 10.6279 4.7731C11.0339 4.4791 11.5029 4.2551 12.0349 4.10109C12.5809 3.9471 13.1829 3.8701 13.8409 3.8701C14.7509 3.8701 15.5069 4.0241 16.1089 4.3321C16.7249 4.6401 17.1799 5.1161 17.4739 5.7601C17.7819 6.3901 17.9359 7.2021 17.9359 8.1961V10.6111C17.9359 11.0451 17.9429 11.5211 17.9569 12.0391C17.9849 12.5431 18.0199 13.0541 18.0619 13.5721C18.1039 14.0761 18.1459 14.5521 18.1879 15.0001H16.4239C16.3819 14.5521 16.3399 14.1041 16.2979 13.6561C16.2699 13.2081 16.2489 12.7601 16.2349 12.3121H15.9619C15.7519 12.8301 15.4719 13.3131 15.1219 13.7611C14.7719 14.2091 14.3309 14.5731 13.7989 14.8531C13.2809 15.1331 12.6649 15.2731 11.9509 15.2731ZM12.5179 13.7191C12.8259 13.7191 13.1339 13.6701 13.4419 13.5721C13.7639 13.4741 14.0789 13.3131 14.3869 13.0891C14.7089 12.8651 15.0099 12.5781 15.2899 12.2281C15.5839 11.8781 15.8429 11.4581 16.0669 10.9681V8.8681L16.6129 8.9731C16.3889 9.1971 16.0879 9.3651 15.7099 9.4771C15.3459 9.5891 14.9399 9.6801 14.4919 9.7501C14.0439 9.8201 13.5959 9.8971 13.1479 9.9811C12.6999 10.0511 12.2869 10.1631 11.9089 10.3171C11.5449 10.4571 11.2509 10.6601 11.0269 10.9261C10.8029 11.1921 10.6909 11.5561 10.6909 12.0181C10.6909 12.5781 10.8589 13.0051 11.1949 13.2991C11.5309 13.5791 11.9719 13.7191 12.5179 13.7191ZM15.8359 2.14809C15.4439 2.14809 15.1429 2.0711 14.9329 1.9171C14.7369 1.7491 14.6389 1.47609 14.6389 1.09809C14.6389 0.748095 14.7439 0.489095 14.9539 0.321095C15.1639 0.139095 15.4579 0.0480957 15.8359 0.0480957C16.2279 0.0480957 16.5219 0.132095 16.7179 0.300095C16.9279 0.468095 17.0329 0.734095 17.0329 1.09809C17.0329 1.47609 16.9279 1.7491 16.7179 1.9171C16.5079 2.0711 16.2139 2.14809 15.8359 2.14809ZM11.6779 2.14809C11.2999 2.14809 11.0059 2.0711 10.7959 1.9171C10.5859 1.7491 10.4809 1.47609 10.4809 1.09809C10.4809 0.748095 10.5859 0.489095 10.7959 0.321095C11.0059 0.139095 11.2999 0.0480957 11.6779 0.0480957C12.0559 0.0480957 12.3499 0.132095 12.5599 0.300095C12.7699 0.468095 12.8749 0.734095 12.8749 1.09809C12.8749 1.47609 12.7699 1.7491 12.5599 1.9171C12.3499 2.0711 12.0559 2.14809 11.6779 2.14809Z" fill="#F9F7EF"/>
<path d="M25.1528 15.2731C24.3968 15.2731 23.7248 15.1891 23.1368 15.0211C22.5488 14.8671 22.0588 14.6431 21.6668 14.3491C21.2748 14.0411 20.9738 13.6771 20.7638 13.2571C20.5538 12.8371 20.4418 12.3751 20.4278 11.8711L22.0448 11.4511C22.0168 11.9131 22.1288 12.3191 22.3808 12.6691C22.6468 13.0051 23.0178 13.2641 23.4938 13.4461C23.9838 13.6281 24.5718 13.7191 25.2578 13.7191C26.0838 13.7191 26.7208 13.5791 27.1688 13.2991C27.6308 13.0191 27.8618 12.6341 27.8618 12.1441C27.8618 11.7521 27.7358 11.4511 27.4838 11.2411C27.2318 11.0171 26.8818 10.8421 26.4338 10.7161C25.9998 10.5761 25.4818 10.4501 24.8798 10.3381C24.3758 10.2261 23.8718 10.1001 23.3678 9.9601C22.8638 9.8201 22.4018 9.6381 21.9818 9.4141C21.5758 9.1761 21.2468 8.8681 20.9948 8.4901C20.7428 8.1121 20.6168 7.6431 20.6168 7.0831C20.6168 6.4251 20.7918 5.8581 21.1418 5.3821C21.4918 4.9061 21.9888 4.5351 22.6328 4.2691C23.2768 4.0031 24.0468 3.8701 24.9428 3.8701C25.8388 3.8701 26.6018 4.0101 27.2318 4.29009C27.8618 4.5561 28.3588 4.9341 28.7228 5.4241C29.0868 5.9141 29.2898 6.4881 29.3318 7.1461L27.6728 7.5661C27.6588 7.1041 27.5328 6.7121 27.2948 6.3901C27.0708 6.0681 26.7488 5.8301 26.3288 5.6761C25.9088 5.5081 25.4188 5.4241 24.8588 5.4241C24.1168 5.4241 23.5288 5.5641 23.0948 5.8441C22.6608 6.1241 22.4438 6.5091 22.4438 6.9991C22.4438 7.3631 22.5698 7.6571 22.8218 7.8811C23.0878 8.1051 23.4448 8.2801 23.8928 8.4061C24.3408 8.5321 24.8378 8.6581 25.3838 8.7841C25.9438 8.8961 26.4758 9.0221 26.9798 9.1621C27.4978 9.3021 27.9598 9.4841 28.3658 9.7081C28.7718 9.9321 29.0938 10.2331 29.3318 10.6111C29.5698 10.9751 29.6888 11.4441 29.6888 12.0181C29.6888 12.7321 29.4998 13.3341 29.1218 13.8241C28.7438 14.3001 28.2118 14.6641 27.5258 14.9161C26.8538 15.1541 26.0628 15.2731 25.1528 15.2731Z" fill="#F9F7EF"/>
<path d="M32.2771 15.0001V0.300095H34.1881V8.6791C34.7341 8.3851 35.2591 8.0491 35.7631 7.6711C36.2671 7.2931 36.7361 6.8941 37.1701 6.4741C37.6041 6.0541 37.9751 5.6411 38.2831 5.2351C38.6051 4.8291 38.8501 4.4651 39.0181 4.1431H41.2651C40.9991 4.6611 40.6561 5.1861 40.2361 5.7181C39.8301 6.2361 39.3751 6.7261 38.8711 7.1881C38.3671 7.6361 37.8351 8.0211 37.2751 8.3431C36.7291 8.6651 36.1691 8.8961 35.5951 9.0361V9.2881C36.2951 9.2321 36.9111 9.3161 37.4431 9.5401C37.9751 9.7641 38.4441 10.0861 38.8501 10.5061C39.2701 10.9261 39.6551 11.4091 40.0051 11.9551C40.3551 12.4871 40.6911 13.0541 41.0131 13.6561L41.6641 15.0001H39.5011L39.0391 14.0341C38.6611 13.3201 38.2761 12.6761 37.8841 12.1021C37.4921 11.5141 37.0441 11.0521 36.5401 10.7161C36.0361 10.3801 35.4341 10.2121 34.7341 10.2121H34.1881V15.0001H32.2771Z" fill="#F9F7EF"/>
</svg>
